<svg xmlns="http://www.w3.org/2000/svg" xmlns:xlink="http://www.w3.org/1999/xlink" width="500" zoomAndPan="magnify" viewBox="0 0 375 374.999991" height="500" preserveAspectRatio="xMidYMid meet" version="1.0"><defs><clipPath id="a21c57cd32"><path d="M 5.285156 23 L 371.238281 23 L 371.238281 334 L 5.285156 334 Z M 5.285156 23 " clip-rule="nonzero"/></clipPath></defs><g clip-path="url(#a21c57cd32)"><path fill="#f7b538" d="M 10.609375 267.792969 C 11.882812 265.441406 13.355469 263.222656 15.035156 261.136719 C 16.710938 259.054688 18.5625 257.136719 20.585938 255.390625 C 22.613281 253.644531 24.777344 252.09375 27.085938 250.742188 C 29.394531 249.390625 31.804688 248.257812 34.320312 247.34375 C 38.316406 248.546875 42.371094 249.507812 46.480469 250.226562 C 55.78125 252.019531 63.8125 253.566406 71.792969 261.449219 C 79.800781 269.355469 82.5625 280.402344 85.488281 288.148438 C 87.183594 292.640625 88.976562 297.273438 91.792969 301.917969 C 91.367188 303.339844 90.871094 304.742188 90.300781 306.113281 C 89.515625 308 88.605469 309.824219 87.566406 311.585938 C 86.53125 313.347656 85.375 315.027344 84.101562 316.625 C 82.832031 318.226562 81.457031 319.730469 79.972656 321.140625 C 78.492188 322.546875 76.921875 323.847656 75.261719 325.039062 C 73.597656 326.230469 71.863281 327.296875 70.050781 328.246094 C 68.242188 329.195312 66.375 330.015625 64.449219 330.707031 C 62.527344 331.394531 60.5625 331.949219 58.5625 332.363281 C 56.5625 332.78125 54.542969 333.058594 52.5 333.191406 C 50.460938 333.328125 48.421875 333.324219 46.382812 333.175781 C 44.347656 333.027344 42.328125 332.738281 40.328125 332.308594 C 38.328125 331.882812 36.371094 331.316406 34.449219 330.617188 C 32.53125 329.914062 30.667969 329.085938 28.863281 328.125 C 27.058594 327.164062 25.328125 326.085938 23.675781 324.886719 C 22.019531 323.6875 20.457031 322.375 18.984375 320.960938 C 17.511719 319.542969 16.144531 318.027344 14.882812 316.421875 C 13.621094 314.8125 12.472656 313.125 11.445312 311.359375 C 10.9375 310.496094 10.453125 309.621094 10.003906 308.722656 C 7.449219 303.660156 5.9375 298.308594 5.457031 292.660156 C 5.351562 291.414062 5.265625 290.160156 5.265625 288.886719 C 5.261719 285.203125 5.710938 281.574219 6.617188 278.003906 C 7.519531 274.433594 8.851562 271.03125 10.609375 267.792969 Z M 26.011719 295.097656 C 26.148438 295.585938 26.300781 296.066406 26.464844 296.539062 C 26.632812 297.015625 26.8125 297.488281 27.011719 297.953125 C 27.207031 298.414062 27.417969 298.875 27.640625 299.324219 C 27.867188 299.777344 28.105469 300.21875 28.355469 300.65625 C 28.609375 301.09375 28.875 301.519531 29.15625 301.941406 C 29.433594 302.359375 29.726562 302.769531 30.03125 303.171875 C 30.339844 303.570312 30.65625 303.964844 30.984375 304.34375 C 31.316406 304.726562 31.65625 305.097656 32.007812 305.457031 C 32.363281 305.816406 32.726562 306.164062 33.101562 306.5 C 33.476562 306.839844 33.863281 307.164062 34.257812 307.476562 C 34.652344 307.789062 35.058594 308.089844 35.472656 308.375 C 35.886719 308.664062 36.308594 308.9375 36.738281 309.199219 C 37.171875 309.460938 37.609375 309.707031 38.058594 309.941406 C 38.503906 310.175781 38.957031 310.394531 39.417969 310.597656 C 39.878906 310.804688 40.34375 310.992188 40.816406 311.167969 C 41.289062 311.34375 41.769531 311.503906 42.25 311.652344 C 42.734375 311.796875 43.21875 311.925781 43.710938 312.042969 C 44.203125 312.15625 44.695312 312.257812 45.191406 312.339844 C 45.691406 312.425781 46.1875 312.492188 46.691406 312.546875 C 47.191406 312.597656 47.695312 312.636719 48.199219 312.65625 C 48.703125 312.679688 49.207031 312.683594 49.710938 312.671875 C 50.214844 312.664062 50.714844 312.636719 51.21875 312.59375 C 51.722656 312.554688 52.222656 312.496094 52.722656 312.421875 C 53.21875 312.347656 53.714844 312.261719 54.207031 312.15625 C 54.703125 312.050781 55.191406 311.929688 55.675781 311.796875 C 56.164062 311.660156 56.644531 311.511719 57.121094 311.34375 C 57.597656 311.179688 58.066406 311 58.53125 310.804688 C 58.996094 310.609375 59.453125 310.402344 59.90625 310.175781 C 60.359375 309.953125 60.804688 309.714844 61.238281 309.464844 C 61.675781 309.214844 62.105469 308.949219 62.527344 308.667969 C 62.945312 308.390625 63.355469 308.101562 63.757812 307.796875 C 64.160156 307.492188 64.554688 307.175781 64.933594 306.847656 C 65.316406 306.515625 65.6875 306.175781 66.050781 305.824219 C 66.410156 305.472656 66.761719 305.109375 67.097656 304.734375 C 67.4375 304.363281 67.761719 303.976562 68.074219 303.582031 C 68.390625 303.1875 68.691406 302.785156 68.980469 302.371094 C 69.269531 301.957031 69.542969 301.535156 69.804688 301.105469 C 70.066406 300.675781 70.316406 300.234375 70.550781 299.789062 C 70.785156 299.34375 71.003906 298.890625 71.210938 298.429688 C 71.417969 297.96875 71.609375 297.503906 71.785156 297.03125 C 71.960938 296.558594 72.125 296.082031 72.269531 295.601562 C 72.417969 295.117188 72.550781 294.632812 72.664062 294.140625 C 72.78125 293.652344 72.882812 293.15625 72.96875 292.660156 C 73.054688 292.164062 73.125 291.664062 73.175781 291.164062 C 73.230469 290.660156 73.269531 290.160156 73.292969 289.65625 C 73.316406 289.152344 73.320312 288.648438 73.3125 288.144531 C 73.304688 287.640625 73.277344 287.136719 73.238281 286.632812 C 73.199219 286.132812 73.140625 285.632812 73.070312 285.132812 C 72.996094 284.632812 72.910156 284.136719 72.804688 283.644531 C 72.703125 283.152344 72.585938 282.660156 72.449219 282.175781 C 72.316406 281.6875 72.167969 281.207031 72.003906 280.730469 C 71.839844 280.253906 71.660156 279.785156 71.464844 279.316406 C 71.273438 278.851562 71.066406 278.394531 70.84375 277.941406 C 70.621094 277.488281 70.382812 277.042969 70.132812 276.605469 C 69.882812 276.167969 69.617188 275.738281 69.339844 275.320312 C 69.0625 274.898438 68.773438 274.484375 68.46875 274.082031 C 68.167969 273.679688 67.851562 273.289062 67.523438 272.90625 C 67.195312 272.519531 66.855469 272.148438 66.503906 271.789062 C 66.15625 271.425781 65.792969 271.074219 65.417969 270.738281 C 65.046875 270.398438 64.664062 270.070312 64.269531 269.757812 C 63.875 269.441406 63.472656 269.140625 63.058594 268.847656 C 62.644531 268.558594 62.226562 268.285156 61.796875 268.019531 C 61.363281 267.757812 60.925781 267.507812 60.480469 267.273438 C 60.035156 267.035156 59.582031 266.816406 59.125 266.609375 C 58.664062 266.402344 58.199219 266.207031 57.726562 266.03125 C 57.253906 265.851562 56.777344 265.6875 56.296875 265.539062 C 55.816406 265.390625 55.328125 265.257812 54.839844 265.140625 C 54.347656 265.023438 53.855469 264.921875 53.359375 264.835938 C 52.863281 264.75 52.363281 264.675781 51.863281 264.621094 C 51.359375 264.566406 50.859375 264.527344 50.355469 264.503906 C 49.851562 264.480469 49.347656 264.472656 48.84375 264.480469 C 48.339844 264.488281 47.835938 264.511719 47.332031 264.550781 C 46.832031 264.589844 46.328125 264.644531 45.832031 264.714844 C 45.332031 264.785156 44.835938 264.871094 44.339844 264.972656 C 43.847656 265.078125 43.355469 265.195312 42.871094 265.328125 C 42.382812 265.460938 41.902344 265.605469 41.425781 265.769531 C 40.949219 265.933594 40.476562 266.109375 40.011719 266.304688 C 39.546875 266.496094 39.085938 266.703125 38.632812 266.921875 C 38.179688 267.144531 37.734375 267.378906 37.296875 267.628906 C 36.859375 267.878906 36.429688 268.140625 36.007812 268.417969 C 35.585938 268.695312 35.171875 268.984375 34.769531 269.285156 C 34.363281 269.585938 33.972656 269.902344 33.585938 270.230469 C 33.203125 270.554688 32.832031 270.894531 32.46875 271.246094 C 32.105469 271.59375 31.753906 271.957031 31.414062 272.328125 C 31.074219 272.699219 30.746094 273.082031 30.429688 273.476562 C 30.113281 273.867188 29.8125 274.269531 29.519531 274.683594 C 29.230469 275.09375 28.953125 275.515625 28.6875 275.945312 C 28.425781 276.375 28.171875 276.8125 27.9375 277.257812 C 27.699219 277.703125 27.476562 278.152344 27.269531 278.613281 C 27.058594 279.070312 26.867188 279.535156 26.6875 280.007812 C 26.507812 280.480469 26.34375 280.957031 26.195312 281.4375 C 26.046875 281.917969 25.910156 282.402344 25.792969 282.894531 C 25.671875 283.382812 25.570312 283.878906 25.480469 284.375 C 25.394531 284.871094 25.320312 285.367188 25.265625 285.871094 C 25.207031 286.371094 25.167969 286.871094 25.140625 287.375 C 25.117188 287.878906 25.109375 288.382812 25.113281 288.886719 C 25.144531 290.996094 25.441406 293.066406 26.011719 295.097656 Z M 89.0625 283.925781 C 90.269531 287.265625 91.671875 290.519531 93.269531 293.6875 C 93.320312 293.785156 93.375 293.882812 93.425781 293.980469 C 93.996094 295.054688 94.597656 296.128906 95.28125 297.199219 C 95.800781 298.015625 96.363281 298.800781 96.964844 299.558594 C 97.996094 300.847656 99.140625 302.027344 100.394531 303.097656 C 101.640625 304.167969 102.980469 305.09375 104.425781 305.871094 C 105.03125 306.195312 105.390625 306.339844 105.390625 306.339844 C 107.519531 301.828125 109.039062 297.117188 109.949219 292.214844 C 110.246094 290.609375 110.515625 288.996094 110.679688 287.347656 C 110.875 285.386719 110.96875 283.417969 110.964844 281.449219 C 110.957031 279.617188 110.851562 277.804688 110.671875 276.007812 L 112.394531 278.507812 C 113.800781 280.515625 115.421875 282.328125 117.261719 283.949219 C 119.101562 285.570312 121.105469 286.949219 123.273438 288.089844 C 125.445312 289.226562 127.71875 290.09375 130.097656 290.691406 C 132.472656 291.285156 134.886719 291.589844 137.339844 291.605469 L 210.535156 291.605469 C 214.527344 270.609375 229.042969 233.960938 271.703125 231.042969 C 291.667969 229.679688 307.914062 234.578125 320.101562 245.894531 C 303.796875 218.71875 284.308594 205.808594 284.308594 205.808594 L 179.558594 205.808594 L 186.695312 241.867188 C 186.828125 242.539062 186.921875 243.214844 186.980469 243.894531 C 187.039062 244.578125 187.058594 245.257812 187.042969 245.941406 C 187.023438 246.625 186.96875 247.304688 186.878906 247.984375 C 186.785156 248.660156 186.65625 249.328125 186.488281 249.992188 C 186.320312 250.65625 186.121094 251.308594 185.878906 251.949219 C 185.640625 252.589844 185.367188 253.214844 185.0625 253.824219 C 184.753906 254.433594 184.414062 255.027344 184.039062 255.597656 C 183.667969 256.171875 183.261719 256.722656 182.828125 257.25 C 182.394531 257.777344 181.933594 258.28125 181.445312 258.757812 C 180.953125 259.234375 180.441406 259.683594 179.902344 260.105469 C 179.363281 260.523438 178.800781 260.914062 178.21875 261.273438 C 177.636719 261.632812 177.039062 261.957031 176.417969 262.25 C 175.800781 262.539062 175.167969 262.796875 174.523438 263.019531 C 173.875 263.242188 173.21875 263.429688 172.554688 263.578125 C 171.886719 263.726562 171.214844 263.839844 170.535156 263.914062 C 169.855469 263.992188 169.171875 264.027344 168.488281 264.027344 L 141.382812 264.027344 C 140.484375 264.027344 139.585938 263.964844 138.695312 263.839844 C 137.800781 263.714844 136.921875 263.527344 136.054688 263.277344 C 135.1875 263.027344 134.34375 262.71875 133.523438 262.351562 C 132.699219 261.984375 131.90625 261.558594 131.140625 261.082031 C 130.378906 260.601562 129.652344 260.070312 128.964844 259.488281 C 128.273438 258.910156 127.628906 258.28125 127.027344 257.609375 C 126.425781 256.941406 125.875 256.230469 125.375 255.480469 C 124.871094 254.730469 124.425781 253.949219 124.035156 253.140625 L 109.734375 223.519531 C 107.953125 219.835938 106.785156 215.964844 106.230469 211.910156 C 105.675781 207.855469 105.761719 203.816406 106.484375 199.785156 L 116.71875 142.835938 C 118.03125 143.511719 119.425781 143.875 120.902344 143.925781 L 149.445312 145.488281 C 151.257812 145.554688 153.050781 145.410156 154.828125 145.0625 C 156.605469 144.710938 158.320312 144.160156 159.96875 143.410156 C 161.621094 142.660156 163.164062 141.734375 164.597656 140.625 C 166.03125 139.519531 167.320312 138.261719 168.464844 136.855469 L 182.125 120.675781 L 189.421875 153.101562 C 189.5 153.441406 189.542969 153.789062 189.550781 154.140625 C 189.5625 154.488281 189.535156 154.835938 189.472656 155.183594 C 189.414062 155.527344 189.316406 155.863281 189.1875 156.191406 C 189.058594 156.515625 188.902344 156.828125 188.710938 157.121094 C 188.519531 157.414062 188.300781 157.6875 188.054688 157.9375 C 187.808594 158.1875 187.539062 158.410156 187.25 158.605469 C 186.957031 158.804688 186.652344 158.96875 186.328125 159.101562 C 186.003906 159.238281 185.667969 159.339844 185.324219 159.40625 C 177.507812 160.921875 162.488281 163.851562 150.394531 166.28125 C 149.707031 166.421875 149.03125 166.589844 148.359375 166.796875 C 147.691406 167 147.035156 167.238281 146.386719 167.507812 C 145.742188 167.78125 145.113281 168.082031 144.496094 168.414062 C 143.878906 168.746094 143.28125 169.109375 142.703125 169.5 C 142.121094 169.890625 141.5625 170.3125 141.023438 170.757812 C 140.484375 171.207031 139.96875 171.679688 139.480469 172.175781 C 138.988281 172.675781 138.519531 173.195312 138.082031 173.738281 C 137.640625 174.285156 137.230469 174.847656 136.84375 175.433594 C 136.460938 176.019531 136.105469 176.621094 135.78125 177.242188 C 135.457031 177.859375 135.164062 178.496094 134.902344 179.144531 C 134.640625 179.792969 134.410156 180.453125 134.214844 181.125 C 134.015625 181.796875 133.855469 182.476562 133.726562 183.164062 C 133.59375 183.851562 133.5 184.546875 133.441406 185.242188 C 133.378906 185.9375 133.351562 186.636719 133.363281 187.335938 C 133.371094 188.039062 133.414062 188.734375 133.492188 189.429688 C 133.566406 190.125 133.679688 190.816406 133.824219 191.5 L 148.1875 248.550781 C 148.347656 249.3125 148.578125 250.054688 148.882812 250.773438 C 149.1875 251.492188 149.558594 252.171875 149.996094 252.820312 C 150.429688 253.464844 150.925781 254.0625 151.480469 254.613281 C 152.035156 255.164062 152.636719 255.652344 153.285156 256.085938 C 153.933594 256.519531 154.621094 256.882812 155.339844 257.179688 C 156.0625 257.480469 156.804688 257.707031 157.570312 257.859375 C 158.335938 258.011719 159.105469 258.089844 159.886719 258.09375 C 160.667969 258.097656 161.441406 258.023438 162.207031 257.875 C 162.972656 257.726562 163.714844 257.507812 164.4375 257.214844 C 165.164062 256.921875 165.851562 256.558594 166.503906 256.132812 C 167.15625 255.703125 167.761719 255.21875 168.316406 254.671875 C 168.875 254.125 169.375 253.53125 169.816406 252.890625 C 170.257812 252.246094 170.632812 251.566406 170.941406 250.851562 C 171.25 250.132812 171.488281 249.394531 171.652344 248.632812 C 171.816406 247.871094 171.90625 247.097656 171.921875 246.316406 C 171.933594 245.539062 171.875 244.765625 171.738281 243.996094 L 160.117188 192.300781 L 174.800781 190.1875 L 174.800781 198.742188 C 174.800781 199.125 174.875 199.492188 175.019531 199.84375 C 175.164062 200.195312 175.375 200.507812 175.644531 200.777344 C 175.914062 201.046875 176.222656 201.253906 176.574219 201.398438 C 176.925781 201.542969 177.292969 201.617188 177.675781 201.617188 L 285.375 201.617188 C 285.757812 201.617188 286.125 201.542969 286.476562 201.398438 C 286.828125 201.253906 287.140625 201.046875 287.410156 200.777344 C 287.679688 200.507812 287.886719 200.195312 288.03125 199.84375 C 288.175781 199.492188 288.25 199.125 288.25 198.742188 L 288.25 187.9375 C 288.25 187.554688 288.175781 187.1875 288.03125 186.835938 C 287.886719 186.484375 287.679688 186.171875 287.410156 185.902344 C 287.140625 185.632812 286.828125 185.425781 286.476562 185.28125 C 286.125 185.136719 285.757812 185.0625 285.375 185.0625 L 207.679688 185.0625 C 208.621094 184.777344 209.542969 184.449219 210.453125 184.082031 C 211.363281 183.710938 212.253906 183.300781 213.128906 182.847656 C 214 182.394531 214.847656 181.902344 215.675781 181.371094 C 216.5 180.839844 217.300781 180.273438 218.074219 179.667969 C 218.847656 179.0625 219.589844 178.421875 220.304688 177.746094 C 221.019531 177.074219 221.699219 176.367188 222.347656 175.628906 C 222.996094 174.890625 223.609375 174.125 224.1875 173.332031 C 224.765625 172.535156 225.304688 171.714844 225.804688 170.871094 C 226.304688 170.027344 226.769531 169.160156 227.1875 168.273438 C 227.609375 167.386719 227.988281 166.480469 228.324219 165.558594 C 228.664062 164.636719 228.957031 163.699219 229.207031 162.75 C 229.457031 161.800781 229.664062 160.839844 229.824219 159.871094 C 229.984375 158.902344 230.101562 157.929688 230.171875 156.949219 C 230.242188 155.96875 230.265625 154.988281 230.246094 154.007812 C 230.226562 153.023438 230.160156 152.046875 230.050781 151.070312 C 229.9375 150.09375 229.78125 149.125 229.582031 148.164062 L 217.003906 100.882812 C 212.703125 80.148438 189.855469 75.039062 176.46875 91.449219 L 152.269531 121.257812 C 151.699219 121.957031 151.007812 122.507812 150.199219 122.910156 C 149.390625 123.3125 148.539062 123.527344 147.636719 123.5625 L 120.902344 123.902344 C 120.378906 123.929688 119.863281 123.996094 119.351562 124.105469 L 119.351562 119.066406 C 119.351562 118.339844 119.226562 117.636719 118.972656 116.957031 C 118.722656 116.277344 118.363281 115.660156 117.890625 115.109375 C 117.421875 114.558594 116.867188 114.105469 116.234375 113.75 C 115.601562 113.394531 114.929688 113.160156 114.210938 113.046875 L 80.675781 107.710938 C 80.304688 107.652344 79.929688 107.632812 79.554688 107.65625 C 79.179688 107.679688 78.8125 107.742188 78.453125 107.84375 C 78.089844 107.945312 77.742188 108.082031 77.410156 108.261719 C 77.082031 108.4375 76.773438 108.648438 76.484375 108.890625 C 76.199219 109.136719 75.945312 109.40625 75.71875 109.707031 C 75.488281 110.003906 75.296875 110.324219 75.140625 110.667969 C 74.984375 111.007812 74.863281 111.363281 74.785156 111.730469 C 74.703125 112.097656 74.664062 112.46875 74.664062 112.84375 L 74.664062 140.15625 C 74.664062 140.53125 74.703125 140.902344 74.785156 141.269531 C 74.863281 141.636719 74.984375 141.992188 75.140625 142.332031 C 75.296875 142.671875 75.488281 142.992188 75.71875 143.292969 C 75.945312 143.59375 76.199219 143.863281 76.484375 144.109375 C 76.773438 144.351562 77.082031 144.5625 77.410156 144.738281 C 77.742188 144.917969 78.089844 145.054688 78.453125 145.15625 C 78.8125 145.257812 79.179688 145.320312 79.554688 145.34375 C 79.929688 145.363281 80.304688 145.347656 80.675781 145.285156 L 95.300781 142.960938 L 71.574219 205.183594 C 71.039062 206.582031 70.683594 208.027344 70.5 209.511719 C 70.316406 211 70.3125 212.484375 70.492188 213.972656 C 70.671875 215.460938 71.027344 216.902344 71.554688 218.304688 C 72.085938 219.707031 72.773438 221.023438 73.625 222.257812 L 75.257812 224.625 L 79.046875 230.121094 C 77.964844 229.582031 76.894531 229.015625 75.773438 228.542969 C 70.382812 226.265625 64.78125 224.84375 58.960938 224.273438 C 57.210938 224.101562 55.476562 224.03125 53.75 224.015625 C 53.328125 224.011719 52.910156 224.03125 52.488281 224.035156 C 50.292969 224.054688 48.105469 224.195312 45.921875 224.453125 C 43.804688 224.738281 41.707031 225.136719 39.632812 225.65625 C 39.25 225.75 38.863281 225.835938 38.484375 225.9375 C 36.511719 226.460938 34.574219 227.085938 32.671875 227.816406 C 32.3125 227.953125 31.964844 228.105469 31.609375 228.25 C 29.65625 229.03125 27.753906 229.914062 25.898438 230.902344 C 24.816406 231.488281 23.761719 232.121094 22.726562 232.785156 C 21.695312 233.445312 20.6875 234.144531 19.6875 234.859375 C 19.6875 234.859375 22.652344 238.808594 30.824219 242.320312 C 34.101562 243.691406 37.476562 244.75 40.949219 245.5 C 52.472656 248.128906 63.597656 248.421875 74.261719 258.949219 C 78.683594 263.265625 82.226562 268.210938 84.890625 273.785156 C 85.664062 275.390625 86.351562 276.984375 86.992188 278.566406 C 87.542969 279.933594 88.058594 281.289062 88.566406 282.640625 C 88.734375 283.066406 88.902344 283.5 89.0625 283.925781 Z M 238.941406 165.132812 L 238.941406 72.566406 C 238.941406 71.773438 239.015625 70.988281 239.171875 70.210938 C 239.328125 69.433594 239.554688 68.679688 239.859375 67.945312 C 240.164062 67.214844 240.535156 66.519531 240.976562 65.859375 C 241.414062 65.199219 241.917969 64.589844 242.476562 64.027344 C 243.039062 63.46875 243.648438 62.96875 244.308594 62.527344 C 244.964844 62.085938 245.664062 61.714844 246.394531 61.410156 C 247.128906 61.109375 247.882812 60.878906 248.660156 60.722656 C 249.4375 60.570312 250.222656 60.492188 251.015625 60.492188 L 359.15625 60.492188 C 359.949219 60.492188 360.734375 60.570312 361.511719 60.722656 C 362.289062 60.878906 363.042969 61.109375 363.777344 61.410156 C 364.507812 61.714844 365.203125 62.085938 365.863281 62.527344 C 366.523438 62.96875 367.132812 63.46875 367.695312 64.027344 C 368.253906 64.589844 368.753906 65.199219 369.195312 65.859375 C 369.636719 66.519531 370.007812 67.214844 370.3125 67.945312 C 370.617188 68.679688 370.84375 69.433594 371 70.210938 C 371.152344 70.988281 371.230469 71.773438 371.230469 72.566406 L 371.230469 165.132812 C 371.230469 165.925781 371.152344 166.710938 371 167.488281 C 370.84375 168.265625 370.613281 169.019531 370.3125 169.753906 C 370.007812 170.484375 369.636719 171.183594 369.195312 171.839844 C 368.753906 172.5 368.253906 173.109375 367.695312 173.671875 C 367.132812 174.230469 366.523438 174.730469 365.863281 175.171875 C 365.203125 175.613281 364.507812 175.984375 363.777344 176.289062 C 363.042969 176.589844 362.289062 176.820312 361.511719 176.972656 C 360.734375 177.128906 359.949219 177.207031 359.15625 177.207031 L 251.015625 177.207031 C 250.222656 177.207031 249.4375 177.128906 248.660156 176.972656 C 247.882812 176.820312 247.128906 176.589844 246.394531 176.289062 C 245.664062 175.984375 244.96875 175.613281 244.308594 175.171875 C 243.648438 174.730469 243.039062 174.230469 242.476562 173.671875 C 241.917969 173.109375 241.417969 172.5 240.976562 171.839844 C 240.535156 171.183594 240.164062 170.484375 239.859375 169.753906 C 239.554688 169.019531 239.328125 168.265625 239.171875 167.488281 C 239.019531 166.710938 238.941406 165.925781 238.941406 165.132812 Z M 257.191406 92.941406 L 278.382812 114.132812 C 278.742188 114.488281 279.128906 114.808594 279.550781 115.089844 C 279.96875 115.371094 280.414062 115.605469 280.878906 115.800781 C 281.347656 115.992188 281.828125 116.140625 282.324219 116.238281 C 282.820312 116.335938 283.320312 116.386719 283.824219 116.386719 C 284.332031 116.386719 284.832031 116.335938 285.328125 116.238281 C 285.820312 116.140625 286.304688 115.992188 286.769531 115.800781 C 287.238281 115.605469 287.679688 115.371094 288.101562 115.089844 C 288.519531 114.808594 288.910156 114.488281 289.265625 114.132812 L 300.496094 125.910156 C 287.675781 138.085938 272.488281 152.507812 272.488281 152.507812 C 272.214844 152.777344 271.972656 153.070312 271.757812 153.386719 C 271.546875 153.703125 271.363281 154.039062 271.21875 154.394531 C 271.070312 154.746094 270.957031 155.109375 270.882812 155.484375 C 270.808594 155.863281 270.769531 156.242188 270.769531 156.625 C 270.765625 157.007812 270.804688 157.386719 270.878906 157.761719 C 270.953125 158.136719 271.0625 158.5 271.207031 158.855469 C 271.355469 159.210938 271.535156 159.546875 271.746094 159.863281 C 271.960938 160.183594 272.203125 160.476562 272.472656 160.746094 C 272.742188 161.019531 273.039062 161.261719 273.355469 161.472656 C 273.675781 161.683594 274.011719 161.863281 274.363281 162.011719 C 274.71875 162.15625 275.082031 162.265625 275.457031 162.339844 C 275.835938 162.414062 276.214844 162.453125 276.597656 162.449219 C 276.980469 162.449219 277.359375 162.414062 277.734375 162.335938 C 278.109375 162.261719 278.472656 162.148438 278.828125 162.003906 C 279.179688 161.855469 279.515625 161.675781 279.832031 161.460938 C 280.152344 161.246094 280.445312 161.003906 280.714844 160.730469 L 307.152344 132.894531 L 333.691406 160.730469 C 333.960938 161.003906 334.253906 161.246094 334.570312 161.460938 C 334.890625 161.675781 335.226562 161.855469 335.578125 162.003906 C 335.929688 162.148438 336.296875 162.261719 336.671875 162.335938 C 337.046875 162.414062 337.425781 162.449219 337.808594 162.453125 C 338.191406 162.453125 338.570312 162.414062 338.945312 162.339844 C 339.320312 162.265625 339.6875 162.15625 340.039062 162.011719 C 340.394531 161.863281 340.730469 161.683594 341.050781 161.472656 C 341.367188 161.261719 341.664062 161.019531 341.933594 160.746094 C 342.203125 160.476562 342.445312 160.183594 342.65625 159.863281 C 342.871094 159.546875 343.050781 159.210938 343.195312 158.855469 C 343.34375 158.5 343.453125 158.136719 343.527344 157.761719 C 343.601562 157.386719 343.636719 157.007812 343.636719 156.625 C 343.636719 156.242188 343.597656 155.863281 343.523438 155.484375 C 343.445312 155.109375 343.335938 154.746094 343.1875 154.394531 C 343.039062 154.039062 342.859375 153.703125 342.644531 153.386719 C 342.433594 153.070312 342.1875 152.777344 341.917969 152.507812 L 313.894531 125.796875 L 323.789062 115.371094 C 329.921875 117.75 338.820312 115.058594 345.6875 108.195312 C 354.070312 99.808594 356.242188 88.386719 350.539062 82.683594 C 344.832031 76.980469 333.410156 79.152344 325.027344 87.535156 C 318.164062 94.402344 315.46875 103.300781 317.851562 109.433594 L 307.269531 119.480469 L 295.316406 108.085938 C 295.671875 107.730469 295.992188 107.339844 296.273438 106.921875 C 296.554688 106.5 296.789062 106.058594 296.984375 105.589844 C 297.175781 105.125 297.324219 104.644531 297.421875 104.148438 C 297.519531 103.652344 297.570312 103.152344 297.570312 102.644531 C 297.570312 102.140625 297.519531 101.640625 297.421875 101.144531 C 297.324219 100.648438 297.175781 100.167969 296.984375 99.703125 C 296.789062 99.234375 296.554688 98.792969 296.273438 98.371094 C 295.992188 97.953125 295.671875 97.5625 295.316406 97.207031 L 274.125 76.015625 C 273.886719 75.777344 273.613281 75.59375 273.300781 75.464844 C 272.992188 75.335938 272.667969 75.273438 272.332031 75.273438 C 271.996094 75.273438 271.671875 75.335938 271.359375 75.464844 C 271.050781 75.59375 270.777344 75.777344 270.539062 76.015625 C 270.28125 76.25 270.082031 76.527344 269.9375 76.84375 C 269.789062 77.160156 269.714844 77.492188 269.703125 77.839844 C 269.695312 78.1875 269.75 78.523438 269.878906 78.847656 C 270.003906 79.171875 270.1875 79.457031 270.433594 79.707031 L 286.414062 95.6875 C 286.609375 95.882812 286.761719 96.113281 286.871094 96.371094 C 286.976562 96.628906 287.03125 96.898438 287.03125 97.175781 C 287.03125 97.457031 286.976562 97.726562 286.871094 97.984375 C 286.761719 98.242188 286.609375 98.46875 286.414062 98.667969 C 286.214844 98.863281 285.988281 99.015625 285.730469 99.125 C 285.472656 99.230469 285.203125 99.285156 284.921875 99.285156 C 284.644531 99.285156 284.375 99.230469 284.117188 99.125 C 283.859375 99.015625 283.628906 98.863281 283.433594 98.667969 L 267.449219 82.683594 C 267.210938 82.453125 266.9375 82.273438 266.628906 82.148438 C 266.320312 82.027344 266 81.964844 265.664062 81.96875 C 265.332031 81.96875 265.011719 82.035156 264.703125 82.164062 C 264.398438 82.292969 264.125 82.472656 263.890625 82.710938 C 263.652344 82.945312 263.472656 83.214844 263.34375 83.523438 C 263.214844 83.832031 263.148438 84.152344 263.148438 84.484375 C 263.144531 84.816406 263.207031 85.140625 263.328125 85.449219 C 263.453125 85.757812 263.632812 86.03125 263.863281 86.269531 L 279.847656 102.25 C 280.042969 102.449219 280.195312 102.675781 280.300781 102.933594 C 280.40625 103.191406 280.460938 103.460938 280.460938 103.738281 C 280.460938 104.019531 280.40625 104.289062 280.300781 104.546875 C 280.191406 104.804688 280.039062 105.03125 279.84375 105.226562 C 279.644531 105.425781 279.417969 105.578125 279.160156 105.683594 C 278.902344 105.792969 278.632812 105.84375 278.355469 105.84375 C 278.078125 105.84375 277.808594 105.792969 277.550781 105.6875 C 277.292969 105.578125 277.0625 105.429688 276.867188 105.230469 L 260.886719 89.25 C 260.648438 89.011719 260.375 88.828125 260.0625 88.699219 C 259.753906 88.570312 259.429688 88.507812 259.09375 88.507812 C 258.757812 88.507812 258.433594 88.570312 258.121094 88.699219 C 257.8125 88.828125 257.535156 89.011719 257.296875 89.25 C 257.042969 89.484375 256.839844 89.761719 256.695312 90.078125 C 256.550781 90.394531 256.472656 90.726562 256.464844 91.074219 C 256.453125 91.421875 256.511719 91.757812 256.640625 92.082031 C 256.765625 92.40625 256.949219 92.691406 257.191406 92.941406 Z M 202.496094 67.023438 C 203.058594 62.769531 204.1875 53.835938 204.078125 51.503906 C 203.324219 35.214844 191.945312 22.507812 173.210938 23.378906 C 171.644531 23.453125 170.097656 23.648438 168.5625 23.96875 C 167.027344 24.289062 165.527344 24.726562 164.0625 25.285156 C 162.597656 25.84375 161.1875 26.515625 159.828125 27.296875 C 158.46875 28.082031 157.183594 28.964844 155.964844 29.953125 C 154.75 30.941406 153.617188 32.019531 152.570312 33.1875 C 151.527344 34.355469 150.578125 35.601562 149.734375 36.917969 C 148.886719 38.238281 148.148438 39.613281 147.519531 41.050781 C 146.890625 42.488281 146.378906 43.964844 145.988281 45.480469 L 174.671875 44.148438 C 175.066406 44.128906 175.449219 44.1875 175.820312 44.320312 C 176.191406 44.457031 176.523438 44.65625 176.816406 44.921875 C 177.105469 45.1875 177.335938 45.5 177.503906 45.855469 C 177.671875 46.210938 177.765625 46.589844 177.78125 46.980469 L 178.234375 56.691406 C 178.253906 57.144531 178.203125 57.585938 178.078125 58.019531 C 177.953125 58.457031 177.761719 58.859375 177.507812 59.230469 C 177.25 59.601562 176.9375 59.921875 176.578125 60.191406 C 176.214844 60.460938 175.820312 60.667969 175.390625 60.808594 L 147.179688 69.984375 C 148.953125 75.238281 151.519531 80.074219 154.871094 84.488281 C 155.125 84.820312 155.425781 85.101562 155.769531 85.339844 C 156.117188 85.574219 156.488281 85.746094 156.890625 85.863281 C 157.292969 85.976562 157.703125 86.023438 158.121094 86.003906 C 158.535156 85.984375 158.941406 85.898438 159.328125 85.75 L 200.050781 70.117188 C 200.710938 69.863281 201.261719 69.460938 201.699219 68.90625 C 202.136719 68.351562 202.402344 67.722656 202.496094 67.023438 Z M 272.027344 235.425781 C 290.664062 234.164062 305.855469 238.660156 317.109375 249.117188 C 330.625 261.675781 336.152344 279.855469 336.152344 291.609375 L 318.210938 291.609375 C 318.210938 291.710938 318.226562 291.8125 318.226562 291.914062 C 318.226562 293.101562 318.144531 294.269531 318.046875 295.429688 C 317.851562 297.832031 317.441406 300.199219 316.824219 302.527344 C 316.210938 304.859375 315.394531 307.117188 314.378906 309.304688 C 313.363281 311.492188 312.164062 313.570312 310.785156 315.546875 C 309.402344 317.523438 307.859375 319.363281 306.152344 321.066406 C 305.601562 321.621094 305.03125 322.164062 304.449219 322.691406 C 303.867188 323.214844 303.269531 323.722656 302.660156 324.214844 C 302.046875 324.707031 301.421875 325.179688 300.785156 325.632812 C 300.144531 326.089844 299.496094 326.527344 298.832031 326.945312 C 298.167969 327.363281 297.492188 327.761719 296.804688 328.140625 C 296.117188 328.519531 295.421875 328.878906 294.714844 329.214844 C 294.007812 329.554688 293.289062 329.875 292.566406 330.171875 C 291.839844 330.46875 291.105469 330.746094 290.363281 331.003906 C 289.625 331.257812 288.875 331.492188 288.121094 331.707031 C 287.363281 331.917969 286.605469 332.109375 285.839844 332.28125 C 285.074219 332.449219 284.304688 332.597656 283.527344 332.722656 C 282.753906 332.847656 281.976562 332.949219 281.195312 333.03125 C 280.417969 333.113281 279.636719 333.167969 278.851562 333.207031 C 278.066406 333.242188 277.285156 333.253906 276.5 333.246094 C 275.714844 333.234375 274.933594 333.203125 274.148438 333.152344 C 273.367188 333.097656 272.585938 333.019531 271.808594 332.921875 C 271.03125 332.820312 270.257812 332.699219 269.484375 332.558594 C 268.714844 332.414062 267.949219 332.25 267.1875 332.0625 C 266.425781 331.875 265.667969 331.664062 264.917969 331.433594 C 264.167969 331.203125 263.425781 330.953125 262.691406 330.679688 C 261.957031 330.40625 261.230469 330.109375 260.511719 329.796875 C 259.792969 329.480469 259.085938 329.144531 258.386719 328.789062 C 257.6875 328.433594 256.996094 328.058594 256.320312 327.664062 C 255.640625 327.269531 254.976562 326.855469 254.324219 326.421875 C 253.667969 325.988281 253.027344 325.535156 252.402344 325.066406 C 251.773438 324.597656 251.160156 324.109375 250.558594 323.601562 C 249.960938 323.097656 249.375 322.574219 248.804688 322.035156 C 248.234375 321.496094 247.679688 320.941406 247.140625 320.371094 C 246.605469 319.800781 246.082031 319.214844 245.578125 318.617188 C 245.074219 318.015625 244.585938 317.402344 244.117188 316.773438 C 243.648438 316.144531 243.199219 315.503906 242.765625 314.847656 C 242.332031 314.195312 241.917969 313.527344 241.527344 312.847656 C 241.050781 312.046875 240.601562 311.230469 240.179688 310.394531 C 237.800781 305.675781 236.390625 300.6875 235.945312 295.425781 C 235.847656 294.269531 235.769531 293.101562 235.769531 291.914062 C 235.769531 291.808594 235.789062 291.710938 235.789062 291.605469 L 218.746094 291.605469 C 223.964844 251.742188 250.816406 236.863281 272.027344 235.425781 Z M 255.09375 297.703125 C 255.457031 299.007812 255.9375 300.269531 256.527344 301.492188 C 257.117188 302.710938 257.8125 303.871094 258.609375 304.964844 C 259.410156 306.0625 260.296875 307.078125 261.277344 308.015625 C 262.257812 308.953125 263.3125 309.792969 264.445312 310.542969 C 265.574219 311.289062 266.761719 311.933594 268.007812 312.46875 C 269.253906 313.003906 270.539062 313.425781 271.859375 313.730469 C 273.179688 314.039062 274.515625 314.222656 275.871094 314.292969 C 277.226562 314.359375 278.574219 314.304688 279.917969 314.128906 C 281.265625 313.957031 282.582031 313.664062 283.875 313.253906 C 285.167969 312.84375 286.414062 312.320312 287.613281 311.6875 C 288.8125 311.054688 289.945312 310.320312 291.011719 309.488281 C 292.082031 308.652344 293.066406 307.726562 293.96875 306.714844 C 294.871094 305.703125 295.675781 304.621094 296.382812 303.464844 C 297.09375 302.308594 297.695312 301.097656 298.1875 299.835938 C 298.679688 298.570312 299.054688 297.273438 299.316406 295.945312 C 299.574219 294.613281 299.714844 293.269531 299.734375 291.914062 C 299.734375 291.8125 299.722656 291.710938 299.71875 291.609375 L 254.269531 291.609375 C 254.269531 291.710938 254.253906 291.8125 254.253906 291.914062 C 254.28125 293.878906 254.5625 295.808594 255.09375 297.703125 Z M 255.09375 297.703125 " fill-opacity="1" fill-rule="nonzero"/></g></svg>