<svg xmlns="http://www.w3.org/2000/svg" xmlns:xlink="http://www.w3.org/1999/xlink" width="500" zoomAndPan="magnify" viewBox="0 0 375 374.999991" height="500" preserveAspectRatio="xMidYMid meet" version="1.0"><defs><clipPath id="cd3c038e2a"><path d="M 76 30.5625 L 313 30.5625 L 313 302 L 76 302 Z M 76 30.5625 " clip-rule="nonzero"/></clipPath><clipPath id="4e3e11ed68"><path d="M 37.5 268 L 351 268 L 351 344.0625 L 37.5 344.0625 Z M 37.5 268 " clip-rule="nonzero"/></clipPath></defs><path fill="#ffffff" d="M 194.25 52.5625 C 141.179688 52.5625 98 95.742188 98 148.8125 C 98 201.886719 141.179688 245.0625 194.25 245.0625 C 247.320312 245.0625 290.5 201.886719 290.5 148.8125 C 290.5 95.742188 247.324219 52.5625 194.25 52.5625 Z M 257.5 190.625 C 257.5 191.148438 257.472656 191.667969 257.421875 192.1875 C 257.371094 192.707031 257.292969 193.222656 257.191406 193.734375 C 257.089844 194.246094 256.960938 194.75 256.808594 195.25 C 256.660156 195.75 256.480469 196.242188 256.28125 196.722656 C 256.082031 197.203125 255.859375 197.675781 255.613281 198.136719 C 255.367188 198.597656 255.097656 199.042969 254.808594 199.476562 C 254.519531 199.910156 254.207031 200.328125 253.878906 200.734375 C 253.546875 201.136719 253.195312 201.523438 252.828125 201.890625 C 252.457031 202.261719 252.070312 202.609375 251.667969 202.941406 C 251.265625 203.273438 250.847656 203.582031 250.414062 203.875 C 249.980469 204.164062 249.53125 204.429688 249.070312 204.675781 C 248.609375 204.921875 248.140625 205.148438 247.65625 205.347656 C 247.175781 205.546875 246.683594 205.722656 246.1875 205.875 C 245.6875 206.027344 245.179688 206.152344 244.667969 206.253906 C 244.15625 206.359375 243.640625 206.433594 243.121094 206.484375 C 242.601562 206.539062 242.082031 206.5625 241.5625 206.5625 L 146.9375 206.5625 C 146.417969 206.5625 145.898438 206.539062 145.378906 206.484375 C 144.859375 206.433594 144.34375 206.359375 143.832031 206.253906 C 143.320312 206.152344 142.8125 206.027344 142.3125 205.875 C 141.816406 205.722656 141.324219 205.546875 140.84375 205.347656 C 140.359375 205.148438 139.890625 204.921875 139.429688 204.675781 C 138.96875 204.429688 138.519531 204.164062 138.085938 203.875 C 137.652344 203.582031 137.234375 203.273438 136.832031 202.941406 C 136.429688 202.609375 136.042969 202.261719 135.671875 201.890625 C 135.304688 201.523438 134.953125 201.136719 134.621094 200.734375 C 134.292969 200.328125 133.980469 199.910156 133.691406 199.476562 C 133.402344 199.042969 133.132812 198.597656 132.886719 198.136719 C 132.640625 197.675781 132.417969 197.203125 132.21875 196.722656 C 132.015625 196.242188 131.839844 195.75 131.691406 195.25 C 131.539062 194.75 131.410156 194.246094 131.308594 193.734375 C 131.207031 193.222656 131.128906 192.707031 131.078125 192.1875 C 131.027344 191.667969 131 191.148438 131 190.625 L 131 186.214844 C 131 185.746094 131.046875 185.28125 131.136719 184.820312 C 131.230469 184.359375 131.367188 183.914062 131.546875 183.480469 C 131.726562 183.046875 131.945312 182.632812 132.207031 182.242188 C 132.46875 181.851562 132.765625 181.492188 133.097656 181.160156 C 133.425781 180.828125 133.789062 180.53125 134.179688 180.269531 C 134.570312 180.011719 134.980469 179.789062 135.414062 179.609375 C 135.847656 179.429688 136.296875 179.292969 136.753906 179.203125 C 137.214844 179.109375 137.679688 179.066406 138.148438 179.0625 L 250.355469 179.0625 C 250.824219 179.066406 251.289062 179.113281 251.75 179.203125 C 252.210938 179.296875 252.65625 179.433594 253.089844 179.613281 C 253.523438 179.792969 253.933594 180.011719 254.324219 180.273438 C 254.714844 180.535156 255.074219 180.832031 255.40625 181.164062 C 255.738281 181.496094 256.035156 181.855469 256.292969 182.246094 C 256.554688 182.636719 256.773438 183.046875 256.953125 183.480469 C 257.132812 183.914062 257.269531 184.359375 257.363281 184.820312 C 257.453125 185.28125 257.5 185.746094 257.5 186.214844 Z M 254.75 157.0625 C 248.078125 157.0625 244.90625 159.367188 241.234375 162.039062 C 237.347656 164.863281 232.941406 168.0625 224.484375 168.0625 C 216.023438 168.0625 211.621094 164.863281 207.734375 162.039062 C 204.0625 159.367188 200.886719 157.0625 194.214844 157.0625 C 187.542969 157.0625 184.382812 159.367188 180.710938 162.039062 C 176.824219 164.863281 172.425781 168.0625 163.96875 168.0625 C 155.511719 168.0625 151.121094 164.863281 147.238281 162.039062 C 143.574219 159.367188 140.410156 157.0625 133.75 157.0625 C 133.386719 157.0625 133.035156 156.996094 132.699219 156.855469 C 132.359375 156.714844 132.0625 156.515625 131.804688 156.257812 C 131.546875 156 131.347656 155.703125 131.210938 155.367188 C 131.070312 155.03125 131 154.679688 131 154.3125 C 131 153.949219 131.070312 153.597656 131.210938 153.261719 C 131.347656 152.925781 131.546875 152.628906 131.804688 152.371094 C 132.0625 152.113281 132.359375 151.914062 132.699219 151.773438 C 133.035156 151.632812 133.386719 151.5625 133.75 151.5625 C 142.199219 151.5625 146.597656 154.765625 150.476562 157.589844 C 154.144531 160.261719 157.3125 162.5625 163.96875 162.5625 C 170.628906 162.5625 173.804688 160.261719 177.476562 157.589844 C 181.359375 154.765625 185.757812 151.5625 194.214844 151.5625 C 202.671875 151.5625 207.082031 154.765625 210.96875 157.589844 C 214.640625 160.261719 217.8125 162.5625 224.484375 162.5625 C 231.15625 162.5625 234.328125 160.261719 238 157.589844 C 241.886719 154.765625 246.289062 151.5625 254.75 151.5625 C 255.113281 151.5625 255.464844 151.632812 255.800781 151.773438 C 256.140625 151.914062 256.4375 152.113281 256.695312 152.371094 C 256.953125 152.628906 257.152344 152.925781 257.289062 153.261719 C 257.429688 153.597656 257.5 153.949219 257.5 154.3125 C 257.5 154.679688 257.429688 155.03125 257.289062 155.367188 C 257.152344 155.703125 256.953125 156 256.695312 156.257812 C 256.4375 156.515625 256.140625 156.714844 255.800781 156.855469 C 255.464844 156.996094 255.113281 157.0625 254.75 157.0625 Z M 257.5 133.53125 C 257.5 133.992188 257.453125 134.449219 257.363281 134.902344 C 257.273438 135.355469 257.140625 135.792969 256.960938 136.222656 C 256.785156 136.648438 256.570312 137.050781 256.3125 137.4375 C 256.054688 137.820312 255.765625 138.175781 255.4375 138.5 C 255.109375 138.828125 254.757812 139.121094 254.371094 139.375 C 253.988281 139.632812 253.582031 139.851562 253.15625 140.027344 C 252.730469 140.203125 252.289062 140.335938 251.839844 140.425781 C 251.386719 140.519531 250.929688 140.5625 250.46875 140.5625 L 138.03125 140.5625 C 137.570312 140.5625 137.113281 140.519531 136.660156 140.425781 C 136.207031 140.335938 135.769531 140.203125 135.34375 140.027344 C 134.917969 139.847656 134.511719 139.632812 134.128906 139.375 C 133.742188 139.121094 133.390625 138.828125 133.0625 138.5 C 132.734375 138.175781 132.445312 137.820312 132.1875 137.4375 C 131.929688 137.050781 131.714844 136.648438 131.539062 136.222656 C 131.359375 135.792969 131.226562 135.355469 131.136719 134.902344 C 131.046875 134.449219 131 133.992188 131 133.53125 L 131 119.527344 C 131 118.59375 131.046875 117.664062 131.140625 116.738281 C 131.230469 115.808594 131.371094 114.890625 131.550781 113.976562 C 131.734375 113.0625 131.960938 112.160156 132.230469 111.269531 C 132.503906 110.375 132.816406 109.5 133.175781 108.640625 C 133.53125 107.777344 133.929688 106.9375 134.371094 106.117188 C 134.808594 105.292969 135.289062 104.496094 135.804688 103.722656 C 136.324219 102.945312 136.878906 102.199219 137.46875 101.476562 C 138.0625 100.757812 138.6875 100.066406 139.34375 99.410156 C 140.003906 98.75 140.695312 98.125 141.414062 97.535156 C 142.132812 96.941406 142.882812 96.386719 143.65625 95.871094 C 144.429688 95.351562 145.230469 94.875 146.050781 94.433594 C 146.871094 93.992188 147.714844 93.59375 148.574219 93.238281 C 149.4375 92.882812 150.3125 92.566406 151.203125 92.296875 C 152.09375 92.023438 152.996094 91.796875 153.910156 91.617188 C 154.824219 91.433594 155.746094 91.296875 156.671875 91.203125 C 157.601562 91.113281 158.53125 91.066406 159.460938 91.0625 L 229.042969 91.0625 C 229.976562 91.066406 230.90625 91.113281 231.832031 91.203125 C 232.761719 91.296875 233.679688 91.433594 234.59375 91.617188 C 235.507812 91.800781 236.410156 92.027344 237.300781 92.296875 C 238.191406 92.570312 239.070312 92.882812 239.929688 93.242188 C 240.789062 93.597656 241.632812 93.996094 242.453125 94.4375 C 243.273438 94.875 244.074219 95.355469 244.847656 95.871094 C 245.621094 96.390625 246.367188 96.945312 247.089844 97.535156 C 247.808594 98.128906 248.5 98.753906 249.15625 99.410156 C 249.816406 100.070312 250.441406 100.761719 251.03125 101.480469 C 251.625 102.199219 252.179688 102.949219 252.695312 103.722656 C 253.214844 104.496094 253.691406 105.296875 254.132812 106.117188 C 254.570312 106.9375 254.96875 107.78125 255.328125 108.640625 C 255.683594 109.5 255.996094 110.378906 256.269531 111.269531 C 256.539062 112.160156 256.765625 113.0625 256.949219 113.976562 C 257.132812 114.890625 257.269531 115.8125 257.359375 116.738281 C 257.453125 117.664062 257.5 118.59375 257.5 119.527344 Z M 257.5 133.53125 " fill-opacity="1" fill-rule="nonzero"/><path fill="#ffffff" d="M 250.351562 184.5625 L 138.148438 184.5625 C 137.929688 184.5625 137.722656 184.605469 137.519531 184.691406 C 137.316406 184.773438 137.136719 184.894531 136.984375 185.046875 C 136.828125 185.203125 136.710938 185.378906 136.625 185.582031 C 136.542969 185.785156 136.5 185.996094 136.5 186.214844 L 136.5 190.628906 C 136.5 191.3125 136.570312 191.992188 136.703125 192.664062 C 136.835938 193.335938 137.035156 193.988281 137.296875 194.621094 C 137.5625 195.253906 137.882812 195.855469 138.265625 196.425781 C 138.644531 196.992188 139.078125 197.519531 139.5625 198.003906 C 140.046875 198.488281 140.574219 198.921875 141.144531 199.300781 C 141.710938 199.683594 142.3125 200.003906 142.945312 200.265625 C 143.578125 200.53125 144.230469 200.726562 144.902344 200.863281 C 145.574219 200.996094 146.253906 201.0625 146.9375 201.0625 L 241.5625 201.0625 C 242.246094 201.0625 242.925781 200.996094 243.597656 200.863281 C 244.269531 200.726562 244.921875 200.527344 245.554688 200.265625 C 246.1875 200.003906 246.789062 199.683594 247.359375 199.300781 C 247.925781 198.921875 248.453125 198.488281 248.9375 198.003906 C 249.421875 197.519531 249.855469 196.992188 250.238281 196.421875 C 250.617188 195.851562 250.941406 195.25 251.203125 194.617188 C 251.464844 193.984375 251.664062 193.332031 251.796875 192.660156 C 251.933594 191.988281 252 191.308594 252 190.625 L 252 186.214844 C 252 185.996094 251.957031 185.785156 251.875 185.582031 C 251.792969 185.382812 251.671875 185.203125 251.519531 185.046875 C 251.363281 184.894531 251.183594 184.773438 250.984375 184.691406 C 250.78125 184.605469 250.570312 184.566406 250.351562 184.5625 Z M 250.351562 184.5625 " fill-opacity="1" fill-rule="nonzero"/><path fill="#ffffff" d="M 229.039062 96.5625 L 159.460938 96.5625 C 158.710938 96.566406 157.960938 96.601562 157.210938 96.675781 C 156.464844 96.75 155.722656 96.863281 154.984375 97.007812 C 154.246094 97.15625 153.519531 97.339844 152.800781 97.558594 C 152.078125 97.777344 151.371094 98.03125 150.679688 98.316406 C 149.984375 98.605469 149.304688 98.925781 148.640625 99.28125 C 147.980469 99.636719 147.335938 100.023438 146.710938 100.441406 C 146.085938 100.859375 145.480469 101.304688 144.902344 101.785156 C 144.320312 102.261719 143.761719 102.765625 143.230469 103.296875 C 142.699219 103.828125 142.195312 104.382812 141.71875 104.964844 C 141.242188 105.546875 140.792969 106.148438 140.375 106.773438 C 139.957031 107.398438 139.574219 108.042969 139.21875 108.707031 C 138.863281 109.371094 138.542969 110.046875 138.253906 110.742188 C 137.964844 111.4375 137.710938 112.144531 137.492188 112.863281 C 137.273438 113.582031 137.09375 114.3125 136.945312 115.046875 C 136.796875 115.785156 136.6875 116.527344 136.613281 117.277344 C 136.539062 118.023438 136.5 118.773438 136.5 119.527344 L 136.5 133.53125 C 136.5 133.734375 136.539062 133.929688 136.617188 134.117188 C 136.695312 134.304688 136.804688 134.472656 136.949219 134.613281 C 137.09375 134.757812 137.257812 134.871094 137.445312 134.945312 C 137.632812 135.023438 137.828125 135.0625 138.03125 135.0625 L 250.46875 135.0625 C 250.671875 135.0625 250.867188 135.023438 251.054688 134.945312 C 251.242188 134.871094 251.40625 134.757812 251.550781 134.613281 C 251.695312 134.472656 251.804688 134.304688 251.882812 134.117188 C 251.960938 133.929688 252 133.734375 252 133.53125 L 252 119.527344 C 252 118.773438 251.960938 118.023438 251.886719 117.277344 C 251.8125 116.527344 251.703125 115.785156 251.554688 115.050781 C 251.40625 114.3125 251.226562 113.582031 251.007812 112.863281 C 250.789062 112.144531 250.535156 111.4375 250.246094 110.742188 C 249.957031 110.050781 249.636719 109.371094 249.28125 108.707031 C 248.929688 108.042969 248.542969 107.402344 248.125 106.777344 C 247.707031 106.152344 247.257812 105.546875 246.78125 104.964844 C 246.304688 104.386719 245.800781 103.828125 245.269531 103.296875 C 244.738281 102.765625 244.179688 102.261719 243.601562 101.785156 C 243.019531 101.308594 242.417969 100.859375 241.792969 100.441406 C 241.167969 100.023438 240.523438 99.636719 239.859375 99.285156 C 239.195312 98.929688 238.519531 98.605469 237.824219 98.320312 C 237.128906 98.03125 236.421875 97.777344 235.703125 97.558594 C 234.984375 97.339844 234.257812 97.15625 233.519531 97.007812 C 232.78125 96.863281 232.039062 96.75 231.289062 96.675781 C 230.542969 96.601562 229.792969 96.566406 229.039062 96.5625 Z M 229.039062 96.5625 " fill-opacity="1" fill-rule="nonzero"/><g clip-path="url(#cd3c038e2a)"><path fill="#ffffff" d="M 243.351562 256.382812 C 245.910156 255.210938 248.425781 253.945312 250.894531 252.59375 C 253.363281 251.242188 255.777344 249.800781 258.144531 248.277344 C 260.511719 246.753906 262.820312 245.144531 265.070312 243.457031 C 267.324219 241.765625 269.511719 240 271.636719 238.15625 C 273.761719 236.308594 275.820312 234.390625 277.808594 232.398438 C 279.800781 230.410156 281.714844 228.347656 283.558594 226.222656 C 285.402344 224.09375 287.164062 221.902344 288.851562 219.648438 C 290.539062 217.394531 292.144531 215.085938 293.664062 212.714844 C 295.1875 210.347656 296.625 207.929688 297.972656 205.460938 C 299.324219 202.988281 300.582031 200.472656 301.753906 197.914062 C 302.925781 195.355469 304.003906 192.757812 304.988281 190.121094 C 305.976562 187.484375 306.867188 184.816406 307.660156 182.113281 C 308.457031 179.414062 309.15625 176.691406 309.757812 173.941406 C 310.359375 171.191406 310.863281 168.421875 311.269531 165.636719 C 311.671875 162.851562 311.976562 160.054688 312.183594 157.246094 C 312.390625 154.441406 312.496094 151.628906 312.5 148.8125 C 312.5 83.613281 259.453125 30.5625 194.25 30.5625 C 129.046875 30.5625 76 83.613281 76 148.8125 C 76.003906 151.628906 76.109375 154.441406 76.316406 157.246094 C 76.523438 160.054688 76.828125 162.851562 77.230469 165.636719 C 77.636719 168.421875 78.140625 171.191406 78.742188 173.941406 C 79.34375 176.691406 80.042969 179.414062 80.839844 182.113281 C 81.632812 184.816406 82.523438 187.484375 83.511719 190.121094 C 84.496094 192.757812 85.574219 195.355469 86.746094 197.914062 C 87.917969 200.472656 89.175781 202.988281 90.527344 205.460938 C 91.875 207.929688 93.3125 210.347656 94.835938 212.714844 C 96.355469 215.085938 97.960938 217.394531 99.648438 219.648438 C 101.335938 221.902344 103.097656 224.09375 104.941406 226.222656 C 106.785156 228.347656 108.699219 230.410156 110.691406 232.398438 C 112.679688 234.390625 114.738281 236.308594 116.863281 238.15625 C 118.988281 240 121.175781 241.765625 123.429688 243.457031 C 125.679688 245.144531 127.988281 246.753906 130.355469 248.277344 C 132.722656 249.800781 135.136719 251.242188 137.605469 252.59375 C 140.074219 253.945312 142.589844 255.210938 145.148438 256.382812 C 145.449219 256.523438 145.714844 256.707031 145.949219 256.941406 L 188.957031 300.039062 C 189.332031 300.355469 189.730469 300.632812 190.152344 300.875 C 190.578125 301.117188 191.019531 301.320312 191.476562 301.484375 C 191.9375 301.648438 192.40625 301.769531 192.890625 301.847656 C 193.371094 301.929688 193.855469 301.96875 194.34375 301.960938 C 194.832031 301.957031 195.3125 301.90625 195.792969 301.816406 C 196.273438 301.722656 196.738281 301.589844 197.195312 301.414062 C 197.652344 301.238281 198.085938 301.027344 198.503906 300.773438 C 198.921875 300.519531 199.316406 300.234375 199.679688 299.910156 L 242.550781 256.941406 C 242.785156 256.707031 243.050781 256.523438 243.351562 256.382812 Z M 194.25 250.5625 C 138.144531 250.5625 92.5 204.921875 92.5 148.8125 C 92.5 92.707031 138.144531 47.0625 194.25 47.0625 C 250.355469 47.0625 296 92.707031 296 148.8125 C 296 204.921875 250.355469 250.5625 194.25 250.5625 Z M 194.25 250.5625 " fill-opacity="1" fill-rule="nonzero"/></g><g clip-path="url(#4e3e11ed68)"><path fill="#ffffff" d="M 239.011719 268.273438 L 223.078125 284.242188 C 246.261719 285.386719 307 289.882812 307 305.5625 C 307 321.703125 239.570312 327.5625 194.25 327.5625 C 148.929688 327.5625 81.5 321.703125 81.5 305.5625 C 81.5 289.882812 142.246094 285.386719 165.429688 284.242188 L 149.488281 268.273438 C 77.277344 272.269531 37.5 285.496094 37.5 305.5625 C 37.5 329.671875 96.097656 344.0625 194.25 344.0625 C 292.402344 344.0625 351 329.671875 351 305.5625 C 351 285.496094 311.222656 272.269531 239.011719 268.273438 Z M 239.011719 268.273438 " fill-opacity="1" fill-rule="nonzero"/></g><path fill="#ffffff" d="M 185.199219 304.050781 L 170.695312 289.519531 C 111.597656 291.785156 87 301.054688 87 305.5625 C 87 311.320312 123.835938 322.0625 194.25 322.0625 C 264.664062 322.0625 301.5 311.320312 301.5 305.5625 C 301.5 301.058594 276.902344 291.785156 217.808594 289.519531 L 203.4375 303.921875 C 202.160156 305.046875 200.726562 305.910156 199.136719 306.515625 C 197.546875 307.117188 195.898438 307.417969 194.199219 307.417969 C 192.542969 307.421875 190.941406 307.136719 189.394531 306.554688 C 187.84375 305.976562 186.445312 305.140625 185.199219 304.050781 Z M 185.199219 304.050781 " fill-opacity="1" fill-rule="nonzero"/></svg>